<svg width="31" height="31" viewBox="0 0 31 31" fill="none" xmlns="http://www.w3.org/2000/svg">
<path d="M30.615 15.3729C30.615 12.3453 29.7172 9.3857 28.0352 6.86831C26.3531 4.35092 23.9623 2.38881 21.1651 1.23019C18.368 0.0715597 15.29 -0.23157 12.3206 0.359092C9.35112 0.949755 6.62349 2.40768 4.48263 4.54855C2.34177 6.68941 0.883837 9.41704 0.293174 12.3865C-0.297488 15.356 0.0056417 18.4339 1.16427 21.2311C2.32289 24.0283 4.28494 26.419 6.80233 28.1011C9.31972 29.7832 12.2794 30.681 15.307 30.681C15.397 30.681 15.486 30.681 15.576 30.681V18.765H12.287V14.932H15.576V12.112C15.576 8.84096 17.576 7.06094 20.49 7.06094C21.475 7.05737 22.4595 7.10778 23.439 7.21194V10.63H21.427C19.839 10.63 19.527 11.385 19.527 12.492V14.9329H23.327L22.832 18.766H19.532V30.094C22.7256 29.1753 25.5338 27.2429 27.5329 24.5883C29.5319 21.9338 30.6134 18.701 30.614 15.378L30.615 15.3729Z" fill="white"/>
</svg>
