<svg width="45" height="30" viewBox="0 0 45 30" fill="none" xmlns="http://www.w3.org/2000/svg">
<path d="M22.475 29.712C17.6984 29.6808 12.9814 28.6479 8.62895 26.68C8.36982 26.5646 8.14987 26.3762 7.99593 26.1379C7.84198 25.8996 7.76071 25.6217 7.76198 25.338V13.426C7.76251 13.036 7.91765 12.6622 8.1934 12.3864C8.46916 12.1107 8.84298 11.9555 9.23296 11.955H35.716C36.1059 11.9555 36.4798 12.1107 36.7555 12.3864C37.0313 12.6622 37.1864 13.036 37.187 13.426V25.333C37.1882 25.6167 37.1069 25.8946 36.953 26.1329C36.799 26.3712 36.5791 26.5596 36.32 26.675C31.9682 28.6445 27.2516 29.6791 22.475 29.712Z" fill="#FF9100"/>
<path d="M22.4709 20.061C22.2745 20.0612 22.08 20.0221 21.8989 19.946L0.898898 11.086C0.628016 10.9718 0.397554 10.7791 0.237246 10.5327C0.0769383 10.2863 -0.00586694 9.9975 -0.000485854 9.70358C0.00489523 9.40967 0.0982081 9.1241 0.267428 8.88373C0.436648 8.64336 0.674036 8.45919 0.948916 8.355L21.9489 0.388002C22.2869 0.258361 22.6609 0.258361 22.9989 0.388002L43.7179 8.355C43.9912 8.46002 44.227 8.64423 44.3951 8.88405C44.5631 9.12387 44.6557 9.40838 44.6611 9.70116C44.6664 9.99393 44.5843 10.2816 44.4252 10.5275C44.2661 10.7733 44.0372 10.966 43.7679 11.081L23.0489 19.941C22.8663 20.0196 22.6697 20.0604 22.4709 20.061Z" fill="#FF9100"/>
<path d="M10.2149 27.485C11.2985 27.485 12.1769 26.6066 12.1769 25.523C12.1769 24.4394 11.2985 23.561 10.2149 23.561C9.13135 23.561 8.25293 24.4394 8.25293 25.523C8.25293 26.6066 9.13135 27.485 10.2149 27.485Z" fill="white"/>
<path opacity="0.2" d="M43.8409 9.821L23.1209 18.681C22.9593 18.7497 22.7854 18.785 22.6099 18.785C22.4343 18.785 22.2605 18.7497 22.0989 18.681L1.09887 9.821C0.835194 9.71224 0.615277 9.51871 0.473871 9.271C0.381366 9.43154 0.324041 9.60992 0.30572 9.7943C0.287398 9.97867 0.308506 10.1648 0.367609 10.3404C0.426712 10.516 0.522479 10.6771 0.648554 10.8129C0.774629 10.9486 0.928121 11.0561 1.09887 11.128L22.0989 19.988C22.2605 20.0566 22.4343 20.0919 22.6099 20.0919C22.7854 20.0919 22.9592 20.0566 23.1209 19.988L43.8409 11.128C44.0108 11.0554 44.1635 10.9477 44.2887 10.8118C44.414 10.6759 44.509 10.515 44.5675 10.3397C44.626 10.1644 44.6466 9.97867 44.6281 9.7948C44.6095 9.61093 44.5522 9.43308 44.4599 9.27299C44.3194 9.51853 44.1018 9.71082 43.8409 9.81999V9.821Z" fill="black"/>
<path d="M10.3789 25.515C10.4656 25.515 10.5488 25.4806 10.6101 25.4192C10.6714 25.3579 10.7059 25.2747 10.7059 25.188V14.248L21.4889 10.32C21.5756 10.3213 21.6593 10.2882 21.7216 10.2278C21.7838 10.1674 21.8195 10.0847 21.8209 9.99802C21.8222 9.91129 21.789 9.82758 21.7286 9.76532C21.6683 9.70306 21.5856 9.66734 21.4989 9.66602L10.7159 13.594C10.629 13.5919 10.5427 13.6075 10.4621 13.6398C10.3814 13.6722 10.3082 13.7205 10.2469 13.782C10.1839 13.8423 10.1338 13.9146 10.0995 13.9947C10.0651 14.0747 10.0472 14.1609 10.0469 14.248V25.188C10.0469 25.2314 10.0555 25.2743 10.0722 25.3143C10.089 25.3543 10.1135 25.3906 10.1444 25.421C10.1753 25.4515 10.2119 25.4754 10.2522 25.4916C10.2924 25.5077 10.3355 25.5157 10.3789 25.515Z" fill="white"/>
</svg>
