<svg width="131" height="18" viewBox="0 0 131 18" fill="none" xmlns="http://www.w3.org/2000/svg">
<path d="M8.08093 4.02295C7.51941 4.58447 7.10844 5.04834 6.84802 5.41455C6.59574 5.77262 6.32312 6.28939 6.03015 6.96484C5.81042 7.45312 5.65173 7.96989 5.55408 8.51514C5.43201 8.99528 5.37097 9.61377 5.37097 10.3706C5.37097 11.4367 5.4727 12.3278 5.67615 13.0439C5.8796 13.752 6.1807 14.2891 6.57947 14.6553C6.97823 15.0133 7.45837 15.1924 8.0199 15.1924C8.47563 15.1924 8.93949 15.0256 9.4115 14.6919C9.89164 14.3582 10.323 13.9229 10.7054 13.3857C11.0961 12.8405 11.4094 12.2342 11.6454 11.5669C11.8814 10.8996 11.9994 10.2567 11.9994 9.63818C11.9994 8.52327 11.6169 7.35954 10.8519 6.14697C10.5671 5.65869 10.4247 5.32503 10.4247 5.146C10.4247 4.81234 10.6078 4.47868 10.974 4.14502C11.389 3.74626 11.8651 3.39225 12.4022 3.08301C12.9393 2.77376 13.3625 2.61914 13.6718 2.61914C13.8508 2.61914 14.038 2.6639 14.2333 2.75342C14.4367 2.8348 14.5913 2.94059 14.6971 3.0708C14.9576 3.33936 15.1732 3.83577 15.3441 4.56006C15.515 5.2762 15.6005 6.03711 15.6005 6.84277C15.6005 8.76335 15.2058 10.5374 14.4164 12.165C13.6351 13.7845 12.5691 15.0703 11.2181 16.0225C9.87537 16.9665 8.41866 17.4385 6.84802 17.4385C5.9447 17.4385 5.04952 17.2716 4.16248 16.938C3.27543 16.6043 2.55522 16.1567 2.00183 15.5952C1.06596 14.6593 0.598022 13.4346 0.598022 11.9209C0.598022 11.042 0.768921 10.1102 1.11072 9.12549C1.45251 8.14079 1.92045 7.18457 2.51453 6.25684C3.11674 5.32096 3.80847 4.46647 4.58972 3.69336C5.37911 2.92025 6.18884 2.3099 7.01892 1.8623C7.77576 1.4554 8.58956 1.12988 9.46033 0.885742C10.3311 0.641602 11.0961 0.519531 11.7552 0.519531C12.683 0.519531 13.1469 0.661947 13.1469 0.946777C13.1469 1.06071 13.0492 1.23568 12.8539 1.47168C12.4958 1.80534 12.1825 2.04134 11.9139 2.17969C11.6535 2.31803 11.2222 2.47266 10.62 2.64355C9.96895 2.83887 9.49695 3.0179 9.20398 3.18066C8.91101 3.33529 8.53666 3.61605 8.08093 4.02295ZM21.7406 10.8467L22.473 9.99219C23.2136 9.17025 23.7995 8.5599 24.2308 8.16113C24.6703 7.75423 25.0609 7.46126 25.4027 7.28223C25.7526 7.10319 26.1066 7.01367 26.4647 7.01367C27.0425 7.01367 27.4494 7.16829 27.6854 7.47754C27.9214 7.78678 28.0394 8.32389 28.0394 9.08887C28.0394 9.40625 28.0069 9.87419 27.9418 10.4927C27.8441 11.3146 27.7953 12.0877 27.7953 12.812C27.7953 13.6258 27.836 14.285 27.9174 14.7896C27.9743 15.0988 28.0598 15.408 28.1737 15.7173C28.2551 16.0103 28.2958 16.2096 28.2958 16.3154C28.2958 16.4456 28.2469 16.5474 28.1493 16.6206C27.897 16.8403 27.5634 17.0316 27.1483 17.1943C26.7333 17.3571 26.3833 17.4385 26.0985 17.4385C25.6346 17.4385 25.2115 17.2798 24.829 16.9624C24.4546 16.645 24.1617 16.2056 23.9501 15.644C23.7466 15.0825 23.6449 14.4478 23.6449 13.7397C23.6449 13.2677 23.6937 12.7103 23.7914 12.0674L23.7426 12.0186C23.3926 12.4092 23.1078 12.7184 22.8881 12.9463C22.6765 13.1742 22.4771 13.3898 22.2899 13.5933C21.3785 14.6349 20.6053 15.5749 19.9706 16.4131C19.7264 16.7386 19.5026 17.0234 19.2992 17.2676C18.9981 17.5687 18.6563 17.7192 18.2738 17.7192C17.753 17.7192 17.3298 17.5239 17.0043 17.1333C16.6788 16.7427 16.516 16.2381 16.516 15.6196C16.516 15.2371 16.5608 14.7692 16.6503 14.2158C16.7398 13.6624 16.8578 13.0724 17.0043 12.4458C17.1589 11.811 17.3379 11.16 17.5414 10.4927C17.753 9.82536 17.9808 9.19059 18.225 8.58838C18.5993 7.5874 19.0551 6.80615 19.5922 6.24463C19.9584 5.87842 20.4019 5.69531 20.9227 5.69531C21.7691 5.69531 22.1923 6.24463 22.1923 7.34326C22.1923 8.14893 22.0254 9.30046 21.6918 10.7979L21.7406 10.8467ZM35.8397 8.16113C36.1652 7.24154 36.4379 6.28125 36.6576 5.28027C36.8773 4.27116 36.9872 3.49805 36.9872 2.96094C36.9872 2.81445 36.9465 2.74121 36.8651 2.74121C36.7349 2.74121 36.507 3.03418 36.1815 3.62012C35.856 4.19792 35.5834 4.78792 35.3636 5.39014C34.8916 6.71663 34.5254 7.81934 34.265 8.69824C34.0127 9.56901 33.8378 10.3014 33.7401 10.8955C33.6425 11.4896 33.5936 12.0959 33.5936 12.7144C33.5936 13.2433 33.6506 13.6299 33.7645 13.874C33.8866 14.1182 34.0778 14.2402 34.3383 14.2402C34.7858 14.2402 35.2863 14.0449 35.8397 13.6543C36.3931 13.2555 36.8936 12.7347 37.3412 12.0918C37.6911 11.6117 37.9637 11.3716 38.1591 11.3716C38.4113 11.3716 38.5375 11.571 38.5375 11.9697C38.5375 12.8405 38.2649 13.6909 37.7196 14.521C37.1744 15.3511 36.4704 16.0265 35.6078 16.5474C34.7533 17.0601 33.8785 17.3164 32.9833 17.3164C31.8846 17.3164 30.9895 16.9705 30.2977 16.2788C29.606 15.5871 29.2601 14.6838 29.2601 13.5688C29.2601 12.6574 29.4554 11.5913 29.8461 10.3706C30.2367 9.14176 30.7575 7.90885 31.4086 6.67188C32.0677 5.42676 32.788 4.29964 33.5692 3.29053C34.3505 2.28141 35.1236 1.5083 35.8885 0.971191C36.3606 0.621257 36.8855 0.446289 37.4633 0.446289C37.9027 0.446289 38.3015 0.584635 38.6595 0.861328C39.0176 1.12988 39.2943 1.5083 39.4896 1.99658C39.6849 2.48486 39.7826 3.02604 39.7826 3.62012C39.7826 4.89779 39.5303 6.14697 39.0258 7.36768C38.5293 8.58838 37.8335 9.64632 36.9384 10.5415C36.5152 10.9728 36.1083 11.3105 35.7177 11.5547C35.327 11.7988 34.9852 11.9209 34.6923 11.9209C34.4074 11.9209 34.265 11.811 34.265 11.5913C34.265 11.4692 34.3708 11.2373 34.5824 10.8955C34.8672 10.4479 35.2009 9.77246 35.5834 8.86914C35.6159 8.77962 35.6525 8.68604 35.6932 8.58838C35.7339 8.48258 35.7828 8.34017 35.8397 8.16113ZM42.4926 17.4141C42.1263 17.3896 41.7927 17.2228 41.4916 16.9136C41.1905 16.5881 40.9748 16.2381 40.8446 15.8638C40.7225 15.4813 40.6615 14.9889 40.6615 14.3867C40.6615 13.0439 40.9097 11.5303 41.4061 9.8457C41.9107 8.15299 42.4803 6.92822 43.1151 6.17139C43.3674 5.854 43.7173 5.69531 44.1649 5.69531C44.6369 5.69531 45.0153 5.91097 45.3002 6.34229C45.5931 6.7736 45.7396 7.33919 45.7396 8.03906C45.7396 9.07259 45.5891 10.2852 45.288 11.6768C44.995 13.0602 44.58 14.5007 44.0428 15.998C43.8313 16.6003 43.5708 17.0072 43.2616 17.2188C43.05 17.349 42.8018 17.4141 42.517 17.4141H42.4926ZM43.9574 5.146C43.1924 5.12158 42.8099 4.66178 42.8099 3.7666C42.8099 3.31901 42.9198 2.80225 43.1395 2.21631C43.3674 1.62223 43.6237 1.18278 43.9086 0.897949C44.0551 0.743327 44.2015 0.633464 44.348 0.568359C44.5026 0.503255 44.698 0.470703 44.934 0.470703C45.3409 0.470703 45.6379 0.572428 45.8251 0.775879C46.0204 0.971191 46.118 1.30078 46.118 1.76465C46.118 2.34245 46.0163 2.89176 45.8129 3.4126C45.6176 3.92529 45.3531 4.3444 45.0194 4.66992C44.6858 4.9873 44.344 5.146 43.994 5.146H43.9574ZM52.1849 10.8467L52.9174 9.99219C53.6579 9.17025 54.2439 8.5599 54.6752 8.16113C55.1146 7.75423 55.5052 7.46126 55.847 7.28223C56.197 7.10319 56.551 7.01367 56.9091 7.01367C57.4869 7.01367 57.8938 7.16829 58.1298 7.47754C58.3658 7.78678 58.4838 8.32389 58.4838 9.08887C58.4838 9.40625 58.4512 9.87419 58.3861 10.4927C58.2885 11.3146 58.2396 12.0877 58.2396 12.812C58.2396 13.6258 58.2803 14.285 58.3617 14.7896C58.4187 15.0988 58.5041 15.408 58.618 15.7173C58.6994 16.0103 58.7401 16.2096 58.7401 16.3154C58.7401 16.4456 58.6913 16.5474 58.5936 16.6206C58.3413 16.8403 58.0077 17.0316 57.5927 17.1943C57.1776 17.3571 56.8277 17.4385 56.5428 17.4385C56.079 17.4385 55.6558 17.2798 55.2733 16.9624C54.899 16.645 54.606 16.2056 54.3944 15.644C54.191 15.0825 54.0892 14.4478 54.0892 13.7397C54.0892 13.2677 54.1381 12.7103 54.2357 12.0674L54.1869 12.0186C53.837 12.4092 53.5521 12.7184 53.3324 12.9463C53.1208 13.1742 52.9214 13.3898 52.7343 13.5933C51.8228 14.6349 51.0497 15.5749 50.4149 16.4131C50.1708 16.7386 49.947 17.0234 49.7435 17.2676C49.4424 17.5687 49.1006 17.7192 48.7181 17.7192C48.1973 17.7192 47.7741 17.5239 47.4486 17.1333C47.1231 16.7427 46.9603 16.2381 46.9603 15.6196C46.9603 15.2371 47.0051 14.7692 47.0946 14.2158C47.1841 13.6624 47.3021 13.0724 47.4486 12.4458C47.6032 11.811 47.7823 11.16 47.9857 10.4927C48.1973 9.82536 48.4252 9.19059 48.6693 8.58838C49.0437 7.5874 49.4994 6.80615 50.0365 6.24463C50.4027 5.87842 50.8462 5.69531 51.3671 5.69531C52.2134 5.69531 52.6366 6.24463 52.6366 7.34326C52.6366 8.14893 52.4698 9.30046 52.1361 10.7979L52.1849 10.8467ZM63.9037 13.4956C64.278 13.2433 64.5629 12.991 64.7582 12.7388C65.1895 12.2098 65.5232 11.6035 65.7592 10.9199C65.9463 10.4723 66.0928 9.97184 66.1986 9.41846C66.3044 8.86507 66.3573 8.34831 66.3573 7.86816C66.3573 7.42057 66.2637 7.19678 66.0765 7.19678C65.8161 7.19678 65.4174 7.77051 64.8802 8.91797C64.5629 9.6097 64.3024 10.3014 64.099 10.9932C63.9037 11.6768 63.806 12.2668 63.806 12.7632C63.806 12.9341 63.8386 13.1782 63.9037 13.4956ZM63.9281 13.8862C64.0176 14.3745 64.335 14.6187 64.8802 14.6187C65.4906 14.6187 66.2841 14.2606 67.2606 13.5444C67.8303 13.1294 68.2128 12.9219 68.4081 12.9219C68.6522 12.9219 68.8801 12.987 69.0917 13.1172C69.3033 13.2474 69.4091 13.3817 69.4091 13.52C69.4091 13.6665 69.2911 13.8577 69.0551 14.0938C68.6237 14.5251 68.1273 14.9482 67.5658 15.3633C67.0043 15.7702 66.4631 16.112 65.9423 16.3887C65.4214 16.6572 64.9006 16.8729 64.3798 17.0356C63.8589 17.1903 63.3951 17.2676 62.9882 17.2676C61.9709 17.2676 61.1571 16.9787 60.5468 16.4009C59.9364 15.8149 59.6312 15.0378 59.6312 14.0693C59.6312 13.3288 59.7899 12.4946 60.1073 11.5669C60.4328 10.631 60.8682 9.75618 61.4135 8.94238C62.0564 7.99023 62.8457 7.19678 63.7816 6.56201C64.9372 5.79704 66.044 5.41455 67.1019 5.41455C67.8669 5.41455 68.465 5.65869 68.8964 6.14697C69.3358 6.62712 69.5555 7.29036 69.5555 8.13672C69.5555 8.7959 69.3806 9.48356 69.0306 10.1997C68.6888 10.9159 68.1802 11.6035 67.5048 12.2627C66.9514 12.8161 66.4061 13.2474 65.869 13.5566C65.34 13.8659 64.8762 14.0205 64.4774 14.0205C64.2984 14.0205 64.1153 13.9757 63.9281 13.8862ZM83.9965 6.81836L83.5936 7.79492C83.0647 9.04818 82.5723 10.2974 82.1166 11.5425C81.8969 12.1447 81.5632 13.1945 81.1156 14.6919C81.7911 14.6349 82.6984 14.4925 83.8378 14.2646C84.5702 14.1182 85.0137 14.0449 85.1683 14.0449C85.4532 14.0449 85.5956 14.1589 85.5956 14.3867C85.5956 14.6553 85.4369 15.0337 85.1195 15.522C84.8103 16.0021 84.4603 16.4172 84.0697 16.7671C83.8011 17.0194 83.4024 17.1943 82.8734 17.292C82.3444 17.3896 81.5184 17.4385 80.3954 17.4385C79.3456 17.4385 78.5358 17.4059 77.9662 17.3408C77.958 17.3408 77.8238 17.3001 77.5634 17.2188C77.0995 17.0234 76.8676 16.6165 76.8676 15.998C76.8676 15.5505 76.9937 14.7326 77.246 13.5444C77.5064 12.3563 77.8807 10.8792 78.369 9.11328C79.4758 5.17448 80.3099 2.74121 80.8715 1.81348C81.0505 1.49609 81.2743 1.25195 81.5428 1.08105C81.8195 0.902018 82.1939 0.763672 82.6659 0.666016C83.1216 0.568359 83.6465 0.519531 84.2406 0.519531C84.794 0.519531 85.1805 0.592773 85.4003 0.739258C85.6281 0.877604 85.7421 1.12174 85.7421 1.47168C85.7421 1.80534 85.5956 2.43197 85.3026 3.35156C85.0096 4.26302 84.5743 5.41862 83.9965 6.81836ZM90.8324 13.4956C91.2067 13.2433 91.4916 12.991 91.6869 12.7388C92.1182 12.2098 92.4519 11.6035 92.6879 10.9199C92.875 10.4723 93.0215 9.97184 93.1273 9.41846C93.2331 8.86507 93.286 8.34831 93.286 7.86816C93.286 7.42057 93.1924 7.19678 93.0052 7.19678C92.7448 7.19678 92.3461 7.77051 91.809 8.91797C91.4916 9.6097 91.2312 10.3014 91.0277 10.9932C90.8324 11.6768 90.7347 12.2668 90.7347 12.7632C90.7347 12.9341 90.7673 13.1782 90.8324 13.4956ZM90.8568 13.8862C90.9463 14.3745 91.2637 14.6187 91.809 14.6187C92.4193 14.6187 93.2128 14.2606 94.1893 13.5444C94.759 13.1294 95.1415 12.9219 95.3368 12.9219C95.5809 12.9219 95.8088 12.987 96.0204 13.1172C96.232 13.2474 96.3378 13.3817 96.3378 13.52C96.3378 13.6665 96.2198 13.8577 95.9838 14.0938C95.5524 14.5251 95.056 14.9482 94.4945 15.3633C93.933 15.7702 93.3918 16.112 92.871 16.3887C92.3501 16.6572 91.8293 16.8729 91.3085 17.0356C90.7876 17.1903 90.3238 17.2676 89.9169 17.2676C88.8996 17.2676 88.0858 16.9787 87.4755 16.4009C86.8651 15.8149 86.5599 15.0378 86.5599 14.0693C86.5599 13.3288 86.7186 12.4946 87.036 11.5669C87.3615 10.631 87.7969 9.75618 88.3422 8.94238C88.9851 7.99023 89.7745 7.19678 90.7103 6.56201C91.8659 5.79704 92.9727 5.41455 94.0306 5.41455C94.7956 5.41455 95.3938 5.65869 95.8251 6.14697C96.2645 6.62712 96.4843 7.29036 96.4843 8.13672C96.4843 8.7959 96.3093 9.48356 95.9594 10.1997C95.6176 10.9159 95.1089 11.6035 94.4335 12.2627C93.8801 12.8161 93.3348 13.2474 92.7977 13.5566C92.2688 13.8659 91.8049 14.0205 91.4061 14.0205C91.2271 14.0205 91.044 13.9757 90.8568 13.8862ZM106.384 10.9443L106.152 11.0176C105.566 11.1803 105.143 11.2617 104.883 11.2617C104.565 11.2617 104.407 11.1803 104.407 11.0176C104.407 10.9606 104.472 10.8101 104.602 10.5659C105.058 9.87419 105.286 9.22314 105.286 8.61279C105.286 8.26286 105.224 7.94548 105.102 7.66064C104.98 7.36768 104.846 7.22119 104.7 7.22119C104.569 7.22119 104.37 7.35954 104.101 7.63623C103.345 8.45817 102.742 9.30046 102.295 10.1631C101.855 11.0257 101.636 11.7948 101.636 12.4702C101.636 12.9178 101.725 13.2881 101.904 13.5811C102.091 13.874 102.323 14.0205 102.6 14.0205C102.836 14.0205 103.275 13.7682 103.918 13.2637C104.569 12.7591 105.298 12.0918 106.103 11.2617L106.433 10.9932L106.384 10.9443ZM105.652 13.7397V13.7886L105.603 13.7397C104.846 14.6268 104.15 15.3551 103.516 15.9248C102.889 16.4863 102.307 16.9095 101.77 17.1943C101.241 17.4792 100.753 17.6216 100.305 17.6216C99.3936 17.6216 98.6408 17.3164 98.0468 16.7061C97.4527 16.0957 97.1556 15.3226 97.1556 14.3867C97.1556 13.8089 97.3021 13.1253 97.5951 12.3359C97.8881 11.5465 98.2909 10.7734 98.8036 10.0166C99.6581 8.77962 100.732 7.72982 102.026 6.86719C103.361 5.98014 104.647 5.53662 105.884 5.53662C106.925 5.53662 107.78 5.75228 108.447 6.18359C109.123 6.60677 109.46 7.14388 109.46 7.79492C109.46 8.27507 109.293 8.78369 108.96 9.3208C109.399 9.3208 109.676 9.36963 109.79 9.46729C109.904 9.5568 109.961 9.77246 109.961 10.1143C109.961 10.0817 109.94 10.2485 109.9 10.6147C109.851 11.4204 109.827 12.1732 109.827 12.873C109.827 13.2393 109.831 13.516 109.839 13.7031C109.847 13.8903 109.863 14.106 109.888 14.3501C109.912 14.5942 109.936 14.7896 109.961 14.936C110.026 15.3185 110.132 15.6969 110.278 16.0713C109.79 16.5514 109.322 16.9054 108.874 17.1333C108.427 17.353 107.971 17.4629 107.507 17.4629C106.254 17.4629 105.627 16.4131 105.627 14.3135C105.627 14.0693 105.635 13.8781 105.652 13.7397ZM115.222 13.5688L115.173 13.813C115.173 13.9513 115.157 14.1507 115.124 14.4111C115.092 14.8099 115.047 15.1354 114.99 15.3877C114.933 15.64 114.848 15.8516 114.734 16.0225C114.62 16.1852 114.465 16.3602 114.27 16.5474C113.676 17.0926 113.078 17.3652 112.475 17.3652C111.987 17.3652 111.625 17.1862 111.389 16.8281C111.161 16.4701 111.047 15.8923 111.047 15.0947C111.047 14.46 111.116 13.6787 111.255 12.751C111.401 11.8151 111.576 10.9769 111.78 10.2363L111.877 9.91895C111.877 9.87012 111.902 9.76839 111.951 9.61377C112.252 8.507 112.528 7.68913 112.781 7.16016C113.033 6.62305 113.338 6.19173 113.696 5.86621C114.014 5.61393 114.372 5.48779 114.77 5.48779C115.348 5.48779 115.698 5.83773 115.82 6.5376C115.934 6.43994 116.044 6.32601 116.15 6.1958C116.386 5.91097 116.569 5.7238 116.699 5.63428C116.829 5.53662 116.98 5.48779 117.151 5.48779C117.851 5.48779 118.201 6.17952 118.201 7.56299C118.201 8.31982 118.119 9.05225 117.956 9.76025C117.794 10.4683 117.586 11.0461 117.334 11.4937C117.09 11.9412 116.846 12.165 116.601 12.165C116.333 12.165 116.199 11.6564 116.199 10.6392C116.199 10.1021 116.166 9.68294 116.101 9.38184C116.044 9.07259 115.95 8.83252 115.82 8.66162C115.576 9.11735 115.417 10.159 115.344 11.7866C115.287 12.7306 115.246 13.3247 115.222 13.5688ZM124.426 10.8467L125.159 9.99219C125.899 9.17025 126.485 8.5599 126.916 8.16113C127.356 7.75423 127.746 7.46126 128.088 7.28223C128.438 7.10319 128.792 7.01367 129.15 7.01367C129.728 7.01367 130.135 7.16829 130.371 7.47754C130.607 7.78678 130.725 8.32389 130.725 9.08887C130.725 9.40625 130.692 9.87419 130.627 10.4927C130.53 11.3146 130.481 12.0877 130.481 12.812C130.481 13.6258 130.522 14.285 130.603 14.7896C130.66 15.0988 130.745 15.408 130.859 15.7173C130.941 16.0103 130.981 16.2096 130.981 16.3154C130.981 16.4456 130.932 16.5474 130.835 16.6206C130.583 16.8403 130.249 17.0316 129.834 17.1943C129.419 17.3571 129.069 17.4385 128.784 17.4385C128.32 17.4385 127.897 17.2798 127.515 16.9624C127.14 16.645 126.847 16.2056 126.636 15.644C126.432 15.0825 126.33 14.4478 126.33 13.7397C126.33 13.2677 126.379 12.7103 126.477 12.0674L126.428 12.0186C126.078 12.4092 125.793 12.7184 125.574 12.9463C125.362 13.1742 125.163 13.3898 124.975 13.5933C124.064 14.6349 123.291 15.5749 122.656 16.4131C122.412 16.7386 122.188 17.0234 121.985 17.2676C121.684 17.5687 121.342 17.7192 120.959 17.7192C120.439 17.7192 120.015 17.5239 119.69 17.1333C119.364 16.7427 119.202 16.2381 119.202 15.6196C119.202 15.2371 119.246 14.7692 119.336 14.2158C119.425 13.6624 119.543 13.0724 119.69 12.4458C119.844 11.811 120.023 11.16 120.227 10.4927C120.439 9.82536 120.666 9.19059 120.911 8.58838C121.285 7.5874 121.741 6.80615 122.278 6.24463C122.644 5.87842 123.087 5.69531 123.608 5.69531C124.455 5.69531 124.878 6.24463 124.878 7.34326C124.878 8.14893 124.711 9.30046 124.377 10.7979L124.426 10.8467Z" fill="#374B5C"/>
</svg>
