<svg width="21" height="21" viewBox="0 0 21 21" fill="none" xmlns="http://www.w3.org/2000/svg">
<path d="M16.785 20.0021C16.6982 20.0022 16.6124 19.9842 16.533 19.9491L10.793 17.3931L5.05301 19.9491C4.94876 19.9954 4.83382 20.012 4.72073 19.9974C4.60765 19.9827 4.50078 19.9372 4.4118 19.8658C4.32283 19.7945 4.25515 19.7001 4.21621 19.5929C4.17727 19.4857 4.16857 19.3699 4.19101 19.2581L5.457 12.9161L1.031 8.48312C0.951664 8.40344 0.895376 8.30376 0.8681 8.19467C0.840825 8.08558 0.843566 7.97116 0.876065 7.86351C0.908565 7.75586 0.969615 7.65901 1.0527 7.58324C1.13579 7.50747 1.23781 7.45559 1.34799 7.43312L7.69101 6.16212L10.224 0.454132C10.2797 0.35209 10.3618 0.266914 10.4617 0.207581C10.5617 0.148247 10.6758 0.116943 10.792 0.116943C10.9082 0.116943 11.0223 0.148247 11.1223 0.207581C11.2222 0.266914 11.3044 0.35209 11.36 0.454132L13.893 6.16212L20.236 7.43312C20.3462 7.45559 20.4482 7.50747 20.5313 7.58324C20.6144 7.65901 20.6754 7.75586 20.7079 7.86351C20.7404 7.97116 20.7432 8.08558 20.7159 8.19467C20.6886 8.30376 20.6323 8.40344 20.553 8.48312L16.127 12.9161L17.393 19.2581C17.4112 19.3484 17.4091 19.4415 17.387 19.5309C17.3648 19.6202 17.3231 19.7035 17.2649 19.7748C17.2066 19.8461 17.1332 19.9035 17.0501 19.943C16.9669 19.9825 16.876 20.003 16.784 20.0031L16.785 20.0021ZM10.793 16.0891C10.8798 16.0889 10.9657 16.107 11.045 16.1421L15.945 18.3221L14.845 12.8321C14.825 12.7317 14.83 12.6279 14.8596 12.5298C14.8893 12.4318 14.9427 12.3426 15.015 12.2701L18.855 8.42413L13.335 7.31813C13.2375 7.29859 13.1462 7.25598 13.0686 7.19386C12.991 7.13175 12.9294 7.05193 12.889 6.96112L10.789 2.23813L8.68899 6.96112C8.64865 7.05198 8.5871 7.13183 8.50949 7.19395C8.43188 7.25608 8.3405 7.29867 8.24301 7.31813L2.72299 8.42413L6.56302 12.2701C6.63529 12.3427 6.68858 12.4319 6.71823 12.5299C6.74788 12.6279 6.75295 12.7317 6.733 12.8321L5.63299 18.3221L10.533 16.1421C10.6127 16.1068 10.6989 16.0888 10.786 16.0891H10.793Z" fill="#00DBD0"/>
</svg>
