<svg width="64" height="43" viewBox="0 0 64 43" fill="none" xmlns="http://www.w3.org/2000/svg">
<path d="M32.1359 41.7069C25.5122 41.663 18.9714 40.2301 12.9359 37.5009C12.577 37.3404 12.2725 37.0791 12.0595 36.7487C11.8464 36.4183 11.734 36.0331 11.7359 35.6399V19.1269C11.7364 18.5858 11.9516 18.067 12.3343 17.6843C12.7169 17.3017 13.2357 17.0865 13.7769 17.0859H50.5069C51.048 17.0865 51.5668 17.3017 51.9495 17.6843C52.3321 18.067 52.5473 18.5858 52.5479 19.1269V35.6429C52.5498 36.0361 52.4373 36.4213 52.2243 36.7517C52.0112 37.0821 51.7067 37.3434 51.3479 37.5039C45.3085 40.2337 38.7634 41.6656 32.1359 41.7069Z" fill="#FBFBFB" stroke="#FF9100"/>
<path d="M32.1309 28.329C31.8586 28.3294 31.589 28.2753 31.3379 28.17L2.21192 15.882C1.83605 15.7238 1.51623 15.4565 1.29373 15.1148C1.07124 14.773 0.95629 14.3724 0.963717 13.9646C0.971145 13.5569 1.10063 13.1607 1.33542 12.8273C1.57021 12.4938 1.89953 12.2384 2.28092 12.094L31.4069 1.044C31.8756 0.864241 32.3942 0.864241 32.8629 1.044L61.5989 12.094C61.9778 12.2399 62.3046 12.4954 62.5375 12.828C62.7704 13.1605 62.8988 13.555 62.9063 13.9609C62.9138 14.3669 62.8001 14.7658 62.5797 15.1068C62.3593 15.4477 62.0422 15.7152 61.6689 15.875L32.9329 28.163C32.6795 28.2719 32.4067 28.3283 32.1309 28.329Z" fill="#FBFBFB" stroke="#FF9100"/>
<path d="M15.1319 38.6251C16.6347 38.6251 17.8529 37.4069 17.8529 35.9041C17.8529 34.4013 16.6347 33.1831 15.1319 33.1831C13.6291 33.1831 12.4109 34.4013 12.4109 35.9041C12.4109 37.4069 13.6291 38.6251 15.1319 38.6251Z" fill="#FF9100"/>
<path opacity="0.2" d="M61.7699 14.132L33.0339 26.416C32.8097 26.5113 32.5685 26.5603 32.3249 26.5603C32.0813 26.5603 31.8402 26.5113 31.6159 26.416L2.4939 14.136C2.12829 13.9854 1.82324 13.7173 1.6269 13.374C1.49857 13.5967 1.41907 13.8442 1.39365 14.0999C1.36824 14.3557 1.39748 14.614 1.47947 14.8576C1.56146 15.1012 1.69432 15.3245 1.86921 15.5129C2.0441 15.7012 2.25704 15.8502 2.4939 15.95L31.6199 28.238C31.8442 28.3333 32.0853 28.3823 32.3289 28.3823C32.5725 28.3823 32.8137 28.3333 33.0379 28.238L61.7749 15.95C62.0108 15.8495 62.2226 15.7001 62.3965 15.5117C62.5703 15.3232 62.7022 15.1 62.7834 14.8568C62.8646 14.6136 62.8933 14.356 62.8675 14.1009C62.8417 13.8458 62.7621 13.5991 62.6339 13.377C62.4391 13.7178 62.1371 13.9847 61.7749 14.136L61.7699 14.132Z" fill="#FBFBFB"/>
<path d="M15.36 35.893C15.4801 35.893 15.5953 35.8453 15.6803 35.7604C15.7653 35.6754 15.813 35.5602 15.813 35.44V20.268L30.768 14.82C30.8292 14.8237 30.8905 14.8149 30.9482 14.7942C31.0059 14.7736 31.0589 14.7414 31.1038 14.6997C31.1488 14.658 31.1848 14.6076 31.2098 14.5516C31.2347 14.4956 31.2481 14.4352 31.249 14.3738C31.25 14.3125 31.2385 14.2517 31.2153 14.1949C31.1921 14.1382 31.1576 14.0867 31.114 14.0437C31.0703 14.0006 31.0184 13.9668 30.9613 13.9444C30.9043 13.9219 30.8433 13.9113 30.782 13.913L15.827 19.361C15.7066 19.3582 15.5869 19.3799 15.4752 19.4248C15.3635 19.4697 15.262 19.5368 15.177 19.622C15.0911 19.7062 15.0229 19.8067 14.9766 19.9177C14.9302 20.0287 14.9066 20.1478 14.907 20.268V35.441C14.9073 35.561 14.9551 35.676 15.04 35.7607C15.1249 35.8454 15.24 35.893 15.36 35.893Z" fill="#FF9100"/>
</svg>
