<svg width="167" height="23" viewBox="0 0 167 23" fill="none" xmlns="http://www.w3.org/2000/svg">
<path d="M9.65564 5.3125C8.93689 6.03125 8.41085 6.625 8.07751 7.09375C7.7546 7.55208 7.40564 8.21354 7.03064 9.07812C6.74939 9.70312 6.54626 10.3646 6.42126 11.0625C6.26501 11.6771 6.18689 12.4688 6.18689 13.4375C6.18689 14.8021 6.3171 15.9427 6.57751 16.8594C6.83793 17.7656 7.22335 18.4531 7.73376 18.9219C8.24418 19.3802 8.85876 19.6094 9.57751 19.6094C10.1608 19.6094 10.7546 19.3958 11.3588 18.9688C11.9733 18.5417 12.5254 17.9844 13.015 17.2969C13.515 16.599 13.9161 15.8229 14.2181 14.9688C14.5202 14.1146 14.6713 13.2917 14.6713 12.5C14.6713 11.0729 14.1817 9.58333 13.2025 8.03125C12.8379 7.40625 12.6556 6.97917 12.6556 6.75C12.6556 6.32292 12.89 5.89583 13.3588 5.46875C13.89 4.95833 14.4994 4.50521 15.1869 4.10938C15.8744 3.71354 16.4161 3.51562 16.8119 3.51562C17.0411 3.51562 17.2806 3.57292 17.5306 3.6875C17.7911 3.79167 17.989 3.92708 18.1244 4.09375C18.4577 4.4375 18.7338 5.07292 18.9525 6C19.1713 6.91667 19.2806 7.89062 19.2806 8.92188C19.2806 11.3802 18.7754 13.651 17.765 15.7344C16.765 17.8073 15.4004 19.4531 13.6713 20.6719C11.9525 21.8802 10.0879 22.4844 8.07751 22.4844C6.92126 22.4844 5.77543 22.2708 4.64001 21.8438C3.5046 21.4167 2.58272 20.8438 1.87439 20.125C0.676473 18.9271 0.0775146 17.3594 0.0775146 15.4219C0.0775146 14.2969 0.296265 13.1042 0.733765 11.8438C1.17126 10.5833 1.77022 9.35938 2.53064 8.17188C3.30147 6.97396 4.18689 5.88021 5.18689 4.89062C6.19731 3.90104 7.23376 3.11979 8.29626 2.54688C9.26501 2.02604 10.3067 1.60938 11.4213 1.29688C12.5358 0.984375 13.515 0.828125 14.3588 0.828125C15.5463 0.828125 16.14 1.01042 16.14 1.375C16.14 1.52083 16.015 1.74479 15.765 2.04688C15.3067 2.47396 14.9056 2.77604 14.5619 2.95312C14.2286 3.13021 13.6765 3.32812 12.9056 3.54688C12.0723 3.79688 11.4681 4.02604 11.0931 4.23438C10.7181 4.43229 10.239 4.79167 9.65564 5.3125ZM27.14 14.0469L28.0775 12.9531C29.0254 11.901 29.7754 11.1198 30.3275 10.6094C30.89 10.0885 31.39 9.71354 31.8275 9.48438C32.2754 9.25521 32.7286 9.14062 33.1869 9.14062C33.9265 9.14062 34.4473 9.33854 34.7494 9.73438C35.0515 10.1302 35.2025 10.8177 35.2025 11.7969C35.2025 12.2031 35.1608 12.8021 35.0775 13.5938C34.9525 14.6458 34.89 15.6354 34.89 16.5625C34.89 17.6042 34.9421 18.4479 35.0463 19.0938C35.1192 19.4896 35.2286 19.8854 35.3744 20.2812C35.4786 20.6562 35.5306 20.9115 35.5306 21.0469C35.5306 21.2135 35.4681 21.3438 35.3431 21.4375C35.0202 21.7188 34.5931 21.9635 34.0619 22.1719C33.5306 22.3802 33.0827 22.4844 32.7181 22.4844C32.1244 22.4844 31.5827 22.2812 31.0931 21.875C30.614 21.4688 30.239 20.9062 29.9681 20.1875C29.7077 19.4688 29.5775 18.6562 29.5775 17.75C29.5775 17.1458 29.64 16.4323 29.765 15.6094L29.7025 15.5469C29.2546 16.0469 28.89 16.4427 28.6088 16.7344C28.3379 17.026 28.0827 17.3021 27.8431 17.5625C26.6765 18.8958 25.6869 20.099 24.8744 21.1719C24.5619 21.5885 24.2754 21.9531 24.015 22.2656C23.6296 22.651 23.1921 22.8438 22.7025 22.8438C22.0358 22.8438 21.4942 22.5938 21.0775 22.0938C20.6608 21.5938 20.4525 20.9479 20.4525 20.1562C20.4525 19.6667 20.5098 19.0677 20.6244 18.3594C20.739 17.651 20.89 16.8958 21.0775 16.0938C21.2754 15.2812 21.5046 14.4479 21.765 13.5938C22.0358 12.7396 22.3275 11.9271 22.64 11.1562C23.1192 9.875 23.7025 8.875 24.39 8.15625C24.8588 7.6875 25.4265 7.45312 26.0931 7.45312C27.1765 7.45312 27.7181 8.15625 27.7181 9.5625C27.7181 10.5938 27.5046 12.0677 27.0775 13.9844L27.14 14.0469ZM45.1869 10.6094C45.6036 9.43229 45.9525 8.20312 46.2338 6.92188C46.515 5.63021 46.6556 4.64062 46.6556 3.95312C46.6556 3.76562 46.6036 3.67188 46.4994 3.67188C46.3327 3.67188 46.0411 4.04688 45.6244 4.79688C45.2077 5.53646 44.8588 6.29167 44.5775 7.0625C43.9733 8.76042 43.5046 10.1719 43.1713 11.2969C42.8483 12.4115 42.6244 13.349 42.4994 14.1094C42.3744 14.8698 42.3119 15.6458 42.3119 16.4375C42.3119 17.1146 42.3848 17.6094 42.5306 17.9219C42.6869 18.2344 42.9317 18.3906 43.265 18.3906C43.8379 18.3906 44.4786 18.1406 45.1869 17.6406C45.8952 17.1302 46.5358 16.4635 47.1088 15.6406C47.5567 15.026 47.9056 14.7188 48.1556 14.7188C48.4786 14.7188 48.64 14.974 48.64 15.4844C48.64 16.599 48.2911 17.6875 47.5931 18.75C46.8952 19.8125 45.9942 20.6771 44.89 21.3438C43.7963 22 42.6765 22.3281 41.5306 22.3281C40.1244 22.3281 38.9786 21.8854 38.0931 21C37.2077 20.1146 36.765 18.9583 36.765 17.5312C36.765 16.3646 37.015 15 37.515 13.4375C38.015 11.8646 38.6817 10.2865 39.515 8.70312C40.3588 7.10938 41.2806 5.66667 42.2806 4.375C43.2806 3.08333 44.2702 2.09375 45.2494 1.40625C45.8536 0.958333 46.5254 0.734375 47.265 0.734375C47.8275 0.734375 48.3379 0.911458 48.7963 1.26562C49.2546 1.60938 49.6088 2.09375 49.8588 2.71875C50.1088 3.34375 50.2338 4.03646 50.2338 4.79688C50.2338 6.43229 49.9108 8.03125 49.265 9.59375C48.6296 11.1562 47.739 12.5104 46.5931 13.6562C46.0515 14.2083 45.5306 14.6406 45.0306 14.9531C44.5306 15.2656 44.0931 15.4219 43.7181 15.4219C43.3536 15.4219 43.1713 15.2812 43.1713 15C43.1713 14.8438 43.3067 14.5469 43.5775 14.1094C43.9421 13.5365 44.3692 12.6719 44.8588 11.5156C44.9004 11.401 44.9473 11.2812 44.9994 11.1562C45.0515 11.0208 45.114 10.8385 45.1869 10.6094ZM53.7025 22.4531C53.2338 22.4219 52.8067 22.2083 52.4213 21.8125C52.0358 21.3958 51.7598 20.9479 51.5931 20.4688C51.4369 19.9792 51.3588 19.349 51.3588 18.5781C51.3588 16.8594 51.6765 14.9219 52.3119 12.7656C52.9577 10.599 53.6869 9.03125 54.4994 8.0625C54.8223 7.65625 55.2702 7.45312 55.8431 7.45312C56.4473 7.45312 56.9317 7.72917 57.2963 8.28125C57.6713 8.83333 57.8588 9.55729 57.8588 10.4531C57.8588 11.776 57.6661 13.3281 57.2806 15.1094C56.9056 16.8802 56.3744 18.724 55.6869 20.6406C55.4161 21.4115 55.0827 21.9323 54.6869 22.2031C54.4161 22.3698 54.0983 22.4531 53.7338 22.4531H53.7025ZM55.5775 6.75C54.5983 6.71875 54.1088 6.13021 54.1088 4.98438C54.1088 4.41146 54.2494 3.75 54.5306 3C54.8223 2.23958 55.1504 1.67708 55.515 1.3125C55.7025 1.11458 55.89 0.973958 56.0775 0.890625C56.2754 0.807292 56.5254 0.765625 56.8275 0.765625C57.3483 0.765625 57.7286 0.895833 57.9681 1.15625C58.2181 1.40625 58.3431 1.82812 58.3431 2.42188C58.3431 3.16146 58.2129 3.86458 57.9525 4.53125C57.7025 5.1875 57.364 5.72396 56.9369 6.14062C56.5098 6.54688 56.0723 6.75 55.6244 6.75H55.5775ZM66.1088 14.0469L67.0463 12.9531C67.9942 11.901 68.7442 11.1198 69.2963 10.6094C69.8588 10.0885 70.3588 9.71354 70.7963 9.48438C71.2442 9.25521 71.6973 9.14062 72.1556 9.14062C72.8952 9.14062 73.4161 9.33854 73.7181 9.73438C74.0202 10.1302 74.1713 10.8177 74.1713 11.7969C74.1713 12.2031 74.1296 12.8021 74.0463 13.5938C73.9213 14.6458 73.8588 15.6354 73.8588 16.5625C73.8588 17.6042 73.9108 18.4479 74.015 19.0938C74.0879 19.4896 74.1973 19.8854 74.3431 20.2812C74.4473 20.6562 74.4994 20.9115 74.4994 21.0469C74.4994 21.2135 74.4369 21.3438 74.3119 21.4375C73.989 21.7188 73.5619 21.9635 73.0306 22.1719C72.4994 22.3802 72.0515 22.4844 71.6869 22.4844C71.0931 22.4844 70.5515 22.2812 70.0619 21.875C69.5827 21.4688 69.2077 20.9062 68.9369 20.1875C68.6765 19.4688 68.5463 18.6562 68.5463 17.75C68.5463 17.1458 68.6088 16.4323 68.7338 15.6094L68.6713 15.5469C68.2233 16.0469 67.8588 16.4427 67.5775 16.7344C67.3067 17.026 67.0515 17.3021 66.8119 17.5625C65.6452 18.8958 64.6556 20.099 63.8431 21.1719C63.5306 21.5885 63.2442 21.9531 62.9838 22.2656C62.5983 22.651 62.1608 22.8438 61.6713 22.8438C61.0046 22.8438 60.4629 22.5938 60.0463 22.0938C59.6296 21.5938 59.4213 20.9479 59.4213 20.1562C59.4213 19.6667 59.4786 19.0677 59.5931 18.3594C59.7077 17.651 59.8588 16.8958 60.0463 16.0938C60.2442 15.2812 60.4733 14.4479 60.7338 13.5938C61.0046 12.7396 61.2963 11.9271 61.6088 11.1562C62.0879 9.875 62.6713 8.875 63.3588 8.15625C63.8275 7.6875 64.3952 7.45312 65.0619 7.45312C66.1452 7.45312 66.6869 8.15625 66.6869 9.5625C66.6869 10.5938 66.4733 12.0677 66.0463 13.9844L66.1088 14.0469ZM81.1088 17.4375C81.5879 17.1146 81.9525 16.7917 82.2025 16.4688C82.7546 15.7917 83.1817 15.0156 83.4838 14.1406C83.7233 13.5677 83.9108 12.9271 84.0463 12.2188C84.1817 11.5104 84.2494 10.849 84.2494 10.2344C84.2494 9.66146 84.1296 9.375 83.89 9.375C83.5567 9.375 83.0463 10.1094 82.3588 11.5781C81.9525 12.4635 81.6192 13.349 81.3588 14.2344C81.1088 15.1094 80.9838 15.8646 80.9838 16.5C80.9838 16.7188 81.0254 17.0312 81.1088 17.4375ZM81.14 17.9375C81.2546 18.5625 81.6608 18.875 82.3588 18.875C83.14 18.875 84.1556 18.4167 85.4056 17.5C86.1348 16.9688 86.6244 16.7031 86.8744 16.7031C87.1869 16.7031 87.4786 16.7865 87.7494 16.9531C88.0202 17.1198 88.1556 17.2917 88.1556 17.4688C88.1556 17.6562 88.0046 17.901 87.7025 18.2031C87.1504 18.7552 86.515 19.2969 85.7963 19.8281C85.0775 20.349 84.3848 20.7865 83.7181 21.1406C83.0515 21.4844 82.3848 21.7604 81.7181 21.9688C81.0515 22.1667 80.4577 22.2656 79.9369 22.2656C78.6348 22.2656 77.5931 21.8958 76.8119 21.1562C76.0306 20.4062 75.64 19.4115 75.64 18.1719C75.64 17.224 75.8431 16.1562 76.2494 14.9688C76.6661 13.7708 77.2233 12.651 77.9213 11.6094C78.7442 10.3906 79.7546 9.375 80.9525 8.5625C82.4317 7.58333 83.8483 7.09375 85.2025 7.09375C86.1817 7.09375 86.9473 7.40625 87.4994 8.03125C88.0619 8.64583 88.3431 9.49479 88.3431 10.5781C88.3431 11.4219 88.1192 12.3021 87.6713 13.2188C87.2338 14.1354 86.5827 15.0156 85.7181 15.8594C85.0098 16.5677 84.3119 17.1198 83.6244 17.5156C82.9473 17.9115 82.3536 18.1094 81.8431 18.1094C81.614 18.1094 81.3796 18.0521 81.14 17.9375ZM106.828 8.89062L106.312 10.1406C105.635 11.7448 105.005 13.3438 104.421 14.9375C104.14 15.7083 103.713 17.0521 103.14 18.9688C104.005 18.8958 105.166 18.7135 106.624 18.4219C107.562 18.2344 108.13 18.1406 108.328 18.1406C108.692 18.1406 108.874 18.2865 108.874 18.5781C108.874 18.9219 108.671 19.4062 108.265 20.0312C107.869 20.6458 107.421 21.1771 106.921 21.625C106.578 21.9479 106.067 22.1719 105.39 22.2969C104.713 22.4219 103.656 22.4844 102.218 22.4844C100.874 22.4844 99.8379 22.4427 99.1088 22.3594C99.0983 22.3594 98.9265 22.3073 98.5931 22.2031C97.9994 21.9531 97.7025 21.4323 97.7025 20.6406C97.7025 20.0677 97.864 19.0208 98.1869 17.5C98.5202 15.9792 98.9994 14.0885 99.6244 11.8281C101.041 6.78646 102.109 3.67188 102.828 2.48438C103.057 2.07812 103.343 1.76562 103.687 1.54688C104.041 1.31771 104.52 1.14062 105.124 1.01562C105.708 0.890625 106.38 0.828125 107.14 0.828125C107.848 0.828125 108.343 0.921875 108.624 1.10938C108.916 1.28646 109.062 1.59896 109.062 2.04688C109.062 2.47396 108.874 3.27604 108.499 4.45312C108.124 5.61979 107.567 7.09896 106.828 8.89062ZM115.578 17.4375C116.057 17.1146 116.421 16.7917 116.671 16.4688C117.223 15.7917 117.65 15.0156 117.953 14.1406C118.192 13.5677 118.38 12.9271 118.515 12.2188C118.65 11.5104 118.718 10.849 118.718 10.2344C118.718 9.66146 118.598 9.375 118.359 9.375C118.025 9.375 117.515 10.1094 116.828 11.5781C116.421 12.4635 116.088 13.349 115.828 14.2344C115.578 15.1094 115.453 15.8646 115.453 16.5C115.453 16.7188 115.494 17.0312 115.578 17.4375ZM115.609 17.9375C115.723 18.5625 116.13 18.875 116.828 18.875C117.609 18.875 118.624 18.4167 119.874 17.5C120.604 16.9688 121.093 16.7031 121.343 16.7031C121.656 16.7031 121.947 16.7865 122.218 16.9531C122.489 17.1198 122.624 17.2917 122.624 17.4688C122.624 17.6562 122.473 17.901 122.171 18.2031C121.619 18.7552 120.984 19.2969 120.265 19.8281C119.546 20.349 118.854 20.7865 118.187 21.1406C117.52 21.4844 116.854 21.7604 116.187 21.9688C115.52 22.1667 114.926 22.2656 114.406 22.2656C113.104 22.2656 112.062 21.8958 111.281 21.1562C110.499 20.4062 110.109 19.4115 110.109 18.1719C110.109 17.224 110.312 16.1562 110.718 14.9688C111.135 13.7708 111.692 12.651 112.39 11.6094C113.213 10.3906 114.223 9.375 115.421 8.5625C116.9 7.58333 118.317 7.09375 119.671 7.09375C120.65 7.09375 121.416 7.40625 121.968 8.03125C122.531 8.64583 122.812 9.49479 122.812 10.5781C122.812 11.4219 122.588 12.3021 122.14 13.2188C121.703 14.1354 121.051 15.0156 120.187 15.8594C119.479 16.5677 118.781 17.1198 118.093 17.5156C117.416 17.9115 116.822 18.1094 116.312 18.1094C116.083 18.1094 115.848 18.0521 115.609 17.9375ZM135.484 14.1719L135.187 14.2656C134.437 14.474 133.895 14.5781 133.562 14.5781C133.156 14.5781 132.953 14.474 132.953 14.2656C132.953 14.1927 133.036 14 133.203 13.6875C133.786 12.8021 134.078 11.9688 134.078 11.1875C134.078 10.7396 133.999 10.3333 133.843 9.96875C133.687 9.59375 133.515 9.40625 133.328 9.40625C133.161 9.40625 132.906 9.58333 132.562 9.9375C131.593 10.9896 130.822 12.0677 130.249 13.1719C129.687 14.276 129.406 15.2604 129.406 16.125C129.406 16.6979 129.52 17.1719 129.749 17.5469C129.989 17.9219 130.286 18.1094 130.64 18.1094C130.942 18.1094 131.505 17.7865 132.328 17.1406C133.161 16.4948 134.093 15.6406 135.124 14.5781L135.546 14.2344L135.484 14.1719ZM134.546 17.75V17.8125L134.484 17.75C133.515 18.8854 132.624 19.8177 131.812 20.5469C131.01 21.2656 130.265 21.8073 129.578 22.1719C128.9 22.5365 128.275 22.7188 127.703 22.7188C126.536 22.7188 125.572 22.3281 124.812 21.5469C124.051 20.7656 123.671 19.776 123.671 18.5781C123.671 17.8385 123.859 16.9635 124.234 15.9531C124.609 14.9427 125.124 13.9531 125.781 12.9844C126.874 11.401 128.249 10.0573 129.906 8.95312C131.614 7.81771 133.26 7.25 134.843 7.25C136.176 7.25 137.27 7.52604 138.124 8.07812C138.989 8.61979 139.421 9.30729 139.421 10.1406C139.421 10.7552 139.208 11.4062 138.781 12.0938C139.343 12.0938 139.697 12.1562 139.843 12.2812C139.989 12.3958 140.062 12.6719 140.062 13.1094C140.062 13.0677 140.036 13.2812 139.984 13.75C139.921 14.7812 139.89 15.7448 139.89 16.6406C139.89 17.1094 139.895 17.4635 139.906 17.7031C139.916 17.9427 139.937 18.2188 139.968 18.5312C139.999 18.8438 140.031 19.0938 140.062 19.2812C140.145 19.7708 140.281 20.2552 140.468 20.7344C139.843 21.349 139.244 21.8021 138.671 22.0938C138.098 22.375 137.515 22.5156 136.921 22.5156C135.317 22.5156 134.515 21.1719 134.515 18.4844C134.515 18.1719 134.525 17.9271 134.546 17.75ZM146.796 17.5312L146.734 17.8438C146.734 18.0208 146.713 18.276 146.671 18.6094C146.63 19.1198 146.572 19.5365 146.499 19.8594C146.426 20.1823 146.317 20.4531 146.171 20.6719C146.025 20.8802 145.828 21.1042 145.578 21.3438C144.817 22.0417 144.051 22.3906 143.281 22.3906C142.656 22.3906 142.192 22.1615 141.89 21.7031C141.598 21.2448 141.453 20.5052 141.453 19.4844C141.453 18.6719 141.541 17.6719 141.718 16.4844C141.906 15.2865 142.13 14.2135 142.39 13.2656L142.515 12.8594C142.515 12.7969 142.546 12.6667 142.609 12.4688C142.994 11.0521 143.348 10.0052 143.671 9.32812C143.994 8.64062 144.385 8.08854 144.843 7.67188C145.249 7.34896 145.708 7.1875 146.218 7.1875C146.958 7.1875 147.406 7.63542 147.562 8.53125C147.708 8.40625 147.848 8.26042 147.984 8.09375C148.286 7.72917 148.52 7.48958 148.687 7.375C148.854 7.25 149.046 7.1875 149.265 7.1875C150.161 7.1875 150.609 8.07292 150.609 9.84375C150.609 10.8125 150.505 11.75 150.296 12.6562C150.088 13.5625 149.822 14.3021 149.499 14.875C149.187 15.4479 148.874 15.7344 148.562 15.7344C148.218 15.7344 148.046 15.0833 148.046 13.7812C148.046 13.0938 148.005 12.5573 147.921 12.1719C147.848 11.776 147.729 11.4688 147.562 11.25C147.249 11.8333 147.046 13.1667 146.953 15.25C146.88 16.4583 146.828 17.2188 146.796 17.5312ZM158.578 14.0469L159.515 12.9531C160.463 11.901 161.213 11.1198 161.765 10.6094C162.328 10.0885 162.828 9.71354 163.265 9.48438C163.713 9.25521 164.166 9.14062 164.624 9.14062C165.364 9.14062 165.885 9.33854 166.187 9.73438C166.489 10.1302 166.64 10.8177 166.64 11.7969C166.64 12.2031 166.598 12.8021 166.515 13.5938C166.39 14.6458 166.328 15.6354 166.328 16.5625C166.328 17.6042 166.38 18.4479 166.484 19.0938C166.557 19.4896 166.666 19.8854 166.812 20.2812C166.916 20.6562 166.968 20.9115 166.968 21.0469C166.968 21.2135 166.906 21.3438 166.781 21.4375C166.458 21.7188 166.031 21.9635 165.499 22.1719C164.968 22.3802 164.52 22.4844 164.156 22.4844C163.562 22.4844 163.02 22.2812 162.531 21.875C162.051 21.4688 161.676 20.9062 161.406 20.1875C161.145 19.4688 161.015 18.6562 161.015 17.75C161.015 17.1458 161.078 16.4323 161.203 15.6094L161.14 15.5469C160.692 16.0469 160.328 16.4427 160.046 16.7344C159.775 17.026 159.52 17.3021 159.281 17.5625C158.114 18.8958 157.124 20.099 156.312 21.1719C155.999 21.5885 155.713 21.9531 155.453 22.2656C155.067 22.651 154.63 22.8438 154.14 22.8438C153.473 22.8438 152.932 22.5938 152.515 22.0938C152.098 21.5938 151.89 20.9479 151.89 20.1562C151.89 19.6667 151.947 19.0677 152.062 18.3594C152.176 17.651 152.328 16.8958 152.515 16.0938C152.713 15.2812 152.942 14.4479 153.203 13.5938C153.473 12.7396 153.765 11.9271 154.078 11.1562C154.557 9.875 155.14 8.875 155.828 8.15625C156.296 7.6875 156.864 7.45312 157.531 7.45312C158.614 7.45312 159.156 8.15625 159.156 9.5625C159.156 10.5938 158.942 12.0677 158.515 13.9844L158.578 14.0469Z" fill="#FBFBFB"/>
</svg>
